<?xml version="1.0" encoding="UTF-8" standalone="no"?>
<svg width="30px" height="22px" viewBox="0 0 30 22" version="1.1" xmlns="http://www.w3.org/2000/svg" xmlns:xlink="http://www.w3.org/1999/xlink">
    <!-- Generator: Sketch 41.2 (35397) - http://www.bohemiancoding.com/sketch -->
    <title>IC_UserMng</title>
    <desc>Created with Sketch.</desc>
    <defs></defs>
    <g id="Page-1" stroke="none" stroke-width="1" fill="none" fill-rule="evenodd">
        <g id="Phoenix_Combo_CMDrop_101716" transform="translate(-1219.000000, -539.000000)" fill="#0A6698">
            <g id="Group-15" transform="translate(1040.000000, 81.000000)">
                <path d="M200.167442,464.621011 C200.212208,464.884731 200.316181,465.085506 200.398906,465.070529 C200.421805,465.066188 200.439959,465.043615 200.453987,465.012359 C200.593856,465.718001 200.830477,466.426682 201.186131,466.948914 L201.186131,467.75223 C201.174785,467.739858 201.161788,467.730525 201.149617,467.717501 C201.098043,467.768292 201.045025,467.825377 200.989737,467.889842 C200.940433,467.940416 200.890509,467.989036 200.840998,468.036136 C200.849663,468.04547 200.859358,468.053067 200.868229,468.062183 C200.590968,468.328508 200.310405,468.534926 200.031699,468.703794 C200.254499,468.799732 200.477505,468.887422 200.698035,468.974243 C201.47247,469.279855 202.204408,469.567885 202.774816,470.167822 C203.774938,471.219665 204.183817,475.208898 204.324304,477.076213 C207.941908,476.79643 209,475.644959 209,475.644959 C209,475.644959 208.741924,470.99827 207.904569,470.116815 C207.070102,469.239917 205.606845,469.342801 204.249831,467.96733 C204.258702,467.956478 204.269429,467.948447 204.277269,467.937594 C204.26159,467.921749 204.245499,467.906121 204.228995,467.889842 C204.153285,467.80085 204.082113,467.726183 204.010115,467.66237 C203.982884,467.694711 203.953797,467.717501 203.926566,467.747889 L203.926566,466.959549 C204.331112,466.438186 204.61023,465.728203 204.775473,465.021909 C204.789089,465.049475 204.806624,465.066188 204.826428,465.070529 C204.910391,465.085506 205.013745,464.884731 205.058924,464.621011 C205.102246,464.357073 205.070682,464.130469 204.986926,464.11571 C204.974342,464.113322 204.962171,464.124826 204.948968,464.130903 C205.069238,463.513385 205.009413,462.519061 204.765158,461.753947 C204.520285,460.982971 203.461368,460.662383 202.637835,460.639375 L202.637835,460.637856 L202.631027,460.637856 L202.591625,460.637856 L202.552635,460.637856 L202.545415,460.637856 L202.545415,460.639375 C201.722707,460.662383 200.662552,460.982971 200.417473,461.753947 C200.175281,462.514937 200.114218,463.503184 200.232219,464.122004 C200.154858,464.150004 200.124739,464.365973 200.167442,464.621011 Z M185.032298,470.167822 C185.602912,469.567885 186.334437,469.278336 187.109078,468.972507 C187.364885,468.871577 187.623374,468.76891 187.882688,468.653655 C187.598618,468.474151 187.312692,468.252539 187.030892,467.96733 C187.039763,467.956478 187.050078,467.948447 187.058329,467.937594 C187.042651,467.921749 187.026354,467.906121 187.010263,467.889842 C186.933933,467.80085 186.862555,467.726183 186.79097,467.66237 C186.764152,467.694711 186.734445,467.717501 186.706801,467.747889 L186.706801,466.959549 C187.11176,466.438186 187.390878,465.728203 187.556121,465.021909 C187.569737,465.049475 187.587066,465.066188 187.607902,465.070529 C187.690833,465.085506 187.794599,464.884731 187.839572,464.621011 C187.883513,464.357073 187.851331,464.130469 187.767781,464.11571 C187.755403,464.113322 187.742819,464.124826 187.729616,464.130903 C187.850299,463.513385 187.790061,462.519061 187.546013,461.753947 C187.30114,460.982971 186.242017,460.662383 185.418484,460.639375 L185.418484,460.637856 L185.411882,460.637856 L185.37248,460.637856 L185.332664,460.637856 L185.326063,460.637856 L185.326063,460.639375 C184.503355,460.662383 183.442788,460.982971 183.19874,461.753947 C182.95593,462.514937 182.895072,463.503184 183.012867,464.122004 C182.935094,464.150004 182.9058,464.365973 182.948503,464.621011 C182.992857,464.884731 183.09683,465.085506 183.179967,465.070529 C183.202453,465.066188 183.220401,465.043615 183.235048,465.012359 C183.374298,465.718001 183.611332,466.426682 183.966986,466.948914 L183.966986,467.75223 C183.955227,467.739858 183.942437,467.730525 183.930884,467.717501 C183.878485,467.768292 183.825879,467.825377 183.770386,467.889842 C183.721494,467.940416 183.671157,467.989036 183.621646,468.036136 C183.630311,468.04547 183.640213,468.053067 183.649084,468.062183 C182.321982,469.335421 180.909062,469.261405 180.095431,470.116815 C179.257457,470.99827 179,475.644959 179,475.644959 C179,475.644959 180.02199,476.754322 183.484047,477.059282 C183.624741,475.185022 184.035063,471.216844 185.032298,470.167822 Z M200.962486,470.63948 C199.850757,469.469777 197.899817,469.607606 196.091428,467.772633 C196.102774,467.758742 196.116183,467.748323 196.127117,467.734214 C196.106487,467.712509 196.08462,467.692323 196.063165,467.669749 C195.961255,467.551455 195.866359,467.451827 195.770637,467.367393 C195.735567,467.409285 195.695752,467.440541 195.659238,467.480044 L195.659238,466.429721 C196.198701,465.735148 196.571684,464.788142 196.791183,463.846563 C196.809544,463.882811 196.832855,463.905384 196.860499,463.910594 C196.971073,463.931214 197.109291,463.662718 197.169324,463.311742 C197.228118,462.959681 197.184589,462.65841 197.07319,462.638007 C197.056686,462.634751 197.039976,462.650379 197.02306,462.658844 C197.183558,461.834039 197.103309,460.509577 196.777568,459.488555 C196.451208,458.461239 195.0387,458.033643 193.941206,458.002171 L193.941206,458 L193.932335,458 C193.914181,458 193.896852,458 193.879523,458.000868 C193.861369,458 193.844866,458 193.827124,458 L193.817841,458 L193.817841,458.002171 C192.720553,458.033643 191.307014,458.461239 190.981479,459.488555 C190.658007,460.503933 190.576314,461.82145 190.733511,462.646255 C190.630569,462.683588 190.590754,462.971619 190.647692,463.311742 C190.707312,463.662718 190.845117,463.931214 190.956517,463.910594 C190.986224,463.905167 191.01036,463.875648 191.029958,463.83354 C191.215625,464.774034 191.531464,465.719086 192.005944,466.415612 L192.005944,467.48699 C191.990266,467.47006 191.972937,467.458339 191.957465,467.440541 C191.887737,467.50761 191.817802,467.584013 191.743536,467.669749 C191.677934,467.737904 191.611506,467.802152 191.545698,467.864447 C191.557044,467.87747 191.570247,467.887237 191.582006,467.900695 C189.812194,469.597405 187.928919,469.498211 186.844009,470.63948 C185.726504,471.814393 185.383021,478.009978 185.383021,478.009978 C185.383021,478.009978 187.223593,480.01382 193.892726,479.999928 L193.903866,479.999928 L193.914181,479.999928 C200.582695,480.01382 202.423473,478.009978 202.423473,478.009978 C202.423473,478.009978 202.079784,471.814393 200.962486,470.63948 Z" id="IC_UserMng"></path>
            </g>
        </g>
    </g>
</svg>