<?xml version="1.0" encoding="UTF-8" standalone="no"?>
<svg width="32px" height="32px" viewBox="0 0 32 32" version="1.1" xmlns="http://www.w3.org/2000/svg" xmlns:xlink="http://www.w3.org/1999/xlink">
    <!-- Generator: Sketch 41.2 (35397) - http://www.bohemiancoding.com/sketch -->
    <title>IC_Settings</title>
    <desc>Created with Sketch.</desc>
    <defs></defs>
    <g id="Page-1" stroke="none" stroke-width="1" fill="none" fill-rule="evenodd">
        <g id="Phoenix_Combo_CMDrop_101716" transform="translate(-1218.000000, -426.000000)" stroke="#FFFFFF" stroke-width="0.5" fill="#0A6698">
            <g id="Group-15" transform="translate(1040.000000, 81.000000)">
                <path d="M195.873125,361.9375 C195.873125,362.453125 195.45125,362.875 194.935625,362.875 L193.060625,362.875 C192.545,362.875 192.123125,362.453125 192.123125,361.9375 L192.123125,360.0625 C192.123125,359.546875 192.545,359.125 193.060625,359.125 L194.935625,359.125 C195.45125,359.125 195.873125,359.546875 195.873125,360.0625 L195.873125,361.9375 Z M194.935625,357.25 L193.060625,357.25 C191.51375,357.25 190.248125,358.515625 190.248125,360.0625 L190.248125,361.9375 C190.248125,363.484375 191.51375,364.75 193.060625,364.75 L194.935625,364.75 C196.4825,364.75 197.748125,363.484375 197.748125,361.9375 L197.748125,360.0625 C197.748125,358.515625 196.4825,357.25 194.935625,357.25 L194.935625,357.25 Z M192.335,373.774375 L195.66125,373.774375 L196.28375,370.04125 L196.92125,369.829375 C197.34875,369.68875 197.770625,369.5125 198.17375,369.31 L198.77375,369.008125 L201.8525,371.2075 L204.20375,368.85625 L202.008125,365.78125 L202.311875,365.179375 C202.51625,364.774375 202.6925,364.350625 202.835,363.919375 L203.046875,363.281875 L206.76875,362.66125 L206.76875,359.335 L203.054375,358.71625 L202.844375,358.076875 C202.701875,357.641875 202.525625,357.214375 202.319375,356.805625 L202.0175,356.205625 L204.205625,353.14375 L201.854375,350.7925 L198.79625,352.976875 L198.194375,352.673125 C197.78375,352.465 197.354375,352.286875 196.9175,352.1425 L196.278125,351.9325 L195.66125,348.2275 L192.335,348.2275 L191.718125,351.9325 L191.07875,352.1425 C190.641875,352.286875 190.2125,352.465 189.801875,352.673125 L189.2,352.976875 L186.141875,350.7925 L183.78875,353.145625 L185.976875,356.2075 L185.675,356.8075 C185.46875,357.21625 185.2925,357.64375 185.15,358.07875 L184.94,358.718125 L181.225625,359.336875 L181.225625,362.663125 L184.9475,363.28375 L185.159375,363.92125 C185.301875,364.3525 185.478125,364.77625 185.6825,365.18125 L185.98625,365.783125 L183.790625,368.858125 L186.14375,371.209375 L189.2225,369.01 L189.8225,369.311875 C190.225625,369.514375 190.6475,369.68875 191.075,369.83125 L191.7125,370.043125 L192.335,373.77625 L192.335,373.774375 Z M197.5475,376 L190.44875,376 L189.734375,371.71 C189.636875,371.670625 189.5375,371.629375 189.44,371.588125 L185.901875,374.115625 L180.8825,369.09625 L183.40625,365.56375 C183.363125,365.464375 183.321875,365.363125 183.280625,365.261875 L179,364.5475 L179,357.44875 L183.269375,356.73625 C183.310625,356.63125 183.35375,356.52625 183.39875,356.423125 L180.8825,352.901875 L185.901875,347.8825 L189.4175,350.393125 C189.524375,350.34625 189.63125,350.303125 189.74,350.26 L190.450625,346 L197.549375,346 L198.26,350.26 C198.36875,350.303125 198.475625,350.348125 198.5825,350.393125 L202.098125,347.8825 L207.1175,352.901875 L204.60125,356.423125 C204.64625,356.52625 204.689375,356.63125 204.730625,356.73625 L209,357.44875 L209,364.5475 L204.719375,365.261875 C204.678125,365.363125 204.636875,365.464375 204.59375,365.56375 L207.1175,369.09625 L202.098125,374.115625 L198.56,371.588125 C198.4625,371.629375 198.365,371.670625 198.265625,371.71 L197.55125,376 L197.5475,376 Z" id="IC_Settings"></path>
            </g>
        </g>
    </g>
</svg>