<svg width="79" height="25" xmlns="http://www.w3.org/2000/svg">
 <!-- Generator: Sketch 41.2 (35397) - http://www.bohemiancoding.com/sketch -->
 <title>IC_Chat</title>
 <desc>Created with Sketch.</desc>

 <g>
  <title>background</title>
  <rect fill="none" id="canvas_background" height="27" width="81" y="-1" x="-1"/>
 </g>
 <g>
  <title>Layer 1</title>
  <g fill-rule="evenodd" fill="none" id="Page-1">
   <g fill="#005173" id="Cirrus_Dashboard_04b_1208164">
    <g id="Header">
     <g id="Group-16">
      <path id="IC_Chat" d="m29.82078,17.94715c-0.22733,0.17127 -0.34806,0.46066 -0.31499,0.75585l0.4106,3.63632l-2.44381,-2.65493c-0.14546,-0.15658 -0.33866,-0.24267 -0.54422,-0.24267c-0.06773,0 -0.13764,0.01014 -0.20057,0.02881c-1.01894,0.2966 -2.07286,0.44716 -3.13329,0.44716c-4.84883,0 -8.79353,-2.9813 -8.79353,-6.64587c0,-3.66484 3.9447,-6.64615 8.79353,-6.64615c4.84856,0 8.79326,2.98131 8.79326,6.64615c0,1.75312 -0.91208,3.41385 -2.56698,4.67533zm-20.99227,2.38022c-0.26757,-0.07462 -0.55132,0.00755 -0.74538,0.21631l-4.48616,4.87506l0.75248,-6.69329c0.03663,-0.29505 -0.08325,-0.58605 -0.31196,-0.7597c-2.60367,-1.9825 -4.03749,-4.60875 -4.03749,-7.39417c0,-5.76015 6.12896,-10.4466 13.66248,-10.4466c4.7755,0 9.15757,1.89823 11.64393,4.99864c-0.57737,-0.08008 -1.15066,-0.12057 -1.71191,-0.12057c-5.69016,0 -10.31928,3.70925 -10.31928,8.26877c0,2.95977 1.92089,5.62343 5.06938,7.10905c-3.0267,0.85292 -6.3797,0.85831 -9.51609,-0.0535z"/>
     </g>
    </g>
   </g>
  </g>
  <text xml:space="preserve" text-anchor="start" font-family="Avenir, sans-serif" font-size="18" id="svg_4" y="18.166638" x="39.000025" stroke-opacity="null" stroke-width="0" stroke="#000" fill="#005172">Chat</text>
 </g>
</svg>