<?xml version="1.0" encoding="UTF-8" standalone="no"?>
<svg width="26px" height="28px" viewBox="0 0 26 28" version="1.1" xmlns="http://www.w3.org/2000/svg" xmlns:xlink="http://www.w3.org/1999/xlink">
    <!-- Generator: Sketch 41.2 (35397) - http://www.bohemiancoding.com/sketch -->
    <title>IC_Logout</title>
    <desc>Created with Sketch.</desc>
    <defs></defs>
    <g id="Page-1" stroke="none" stroke-width="1" fill="none" fill-rule="evenodd">
        <g id="Cirrus_Dashboard_Screen_dropdown" transform="translate(-1180.000000, -373.000000)" fill="#0A6698">
            <g id="Group-15" transform="translate(1140.000000, 80.000000)">
                <path d="M40,293 L40,315.75175 L50.4,321 L50.4,315.75175 L59.0666667,315.75175 L59.0666667,308.75 L57.3333333,308.75 L57.3333333,314.00175 L50.4,314.00175 L50.4,298.25175 L43.4666667,294.75 L57.3333333,294.75 L57.3333333,301.75 L59.0666667,301.75 L59.0666667,293 L40,293 Z M60.8,303.5 L52.1333333,303.5 L52.1333333,307 L60.8,307 L60.8,310.5 L66,305.25 L60.8,300.00175 L60.8,303.5 Z" id="IC_Logout" transform="translate(53.000000, 307.000000) scale(-1, 1) translate(-53.000000, -307.000000) "></path>
            </g>
        </g>
    </g>
</svg>